<svg id="Layer_1" data-name="Layer 1" xmlns="http://www.w3.org/2000/svg" viewBox="0 0 253.48 101.32"><defs><style>.cls-1{fill:#34a366;}.cls-2{fill:none;stroke:#000;stroke-linecap:round;stroke-linejoin:round;}</style></defs><path class="cls-1" d="M740.41,398.33" transform="translate(-454.97 -359.66)"/><polyline class="cls-2" points="3.22 100.52 2.84 100.17 7.11 100.52 2.75 96.47 12 100.53 2.64 91.8 15.98 100.53 2.55 88.02 20.85 100.54 2.44 83.37 24.95 100.55 2.35 79.47 29 100.55 2.25 75.61 33.24 100.56 2.15 71.57 38.23 100.56 2.04 66.81 42.23 100.57 1.95 63.01 46.36 100.57 1.85 59.07 51.08 100.58 1.75 54.58 55.95 100.58 1.64 49.94 61.05 100.59 1.52 45.07 65.15 100.6 1.43 41.17 69.75 100.6 1.32 36.79 74.63 100.61 1.21 32.15 79.57 100.61 1.1 27.43 83.36 100.62 1.01 23.83 88.46 100.63 0.89 18.97 92.66 100.63 0.8 14.97 97.11 100.64 0.69 10.73 101.85 100.64 0.59 6.21 105.64 100.65 0.5 2.61 110.12 100.65 3.07 0.83 114.71 100.66 7.66 0.84 118.59 100.66 11.55 0.84 122.34 100.67 15.3 0.84 126.95 100.67 19.91 0.85 131.36 100.68 24.31 0.85 135.99 100.68 28.94 0.86 139.76 100.69 32.72 0.86 143.65 100.69 36.6 0.87 147.79 100.7 40.74 0.87 152.61 100.7 45.56 0.88 156.37 100.71 49.32 0.88 160.93 100.72 53.88 0.89 165.99 100.72 58.94 0.89 169.67 100.73 62.62 0.9 174.42 100.73 67.37 0.9 178.81 100.74 71.76 0.91 182.66 100.74 75.61 0.91 187.4 100.75 80.34 0.92 191.68 100.75 84.63 0.92 195.85 100.76 88.79 0.93 199.79 100.76 92.74 0.93 203.89 100.77 96.83 0.94 208.16 100.77 101.11 0.94 212.71 100.78 105.65 0.95 217.79 100.79 110.73 0.95 221.93 100.79 114.87 0.96 226.37 100.8 119.31 0.96 230.41 100.8 123.35 0.97 235.42 100.81 128.36 0.97 239.28 100.81 132.22 0.98 243.66 100.82 136.6 0.98 248.43 100.82 141.37 0.99 250.65 99.01 145.54 0.99 250.65 94.87 149.99 1 250.66 90.43 154.76 1 250.66 86.72 158.74 1.01 250.66 82.4 163.39 1.01 250.67 77.97 168.15 1.02 250.67 73.75 172.69 1.02 250.68 69.56 177.19 1.03 250.68 65.45 181.6 1.03 250.69 60.92 186.47 1.04 250.69 56.36 191.37 1.04 250.69 52.27 195.77 1.05 250.7 47.88 200.48 1.05 250.7 44.18 204.46 1.06 250.71 40.46 208.46 1.06 250.71 35.85 213.41 1.07 250.71 31.08 218.54 1.07 250.72 26.45 223.51 1.08 250.72 22.09 228.2 1.08 250.73 17.82 232.79 1.09 250.73 14.02 236.87 1.09 250.73 9.65 241.57 1.1 250.74 5.34 246.19 1.1 250.74 1.45 250.38 1.11"/><polyline class="cls-2" points="5.46 100.19 5.08 99.84 9.34 100.19 4.99 96.13 14.24 100.2 4.88 91.47 18.21 100.2 4.79 87.68 23.09 100.21 4.68 83.04 27.19 100.22 4.58 79.14 31.24 100.22 4.49 75.28 35.48 100.22 4.39 71.24 40.47 100.23 4.28 66.48 44.47 100.24 4.19 62.67 48.6 100.24 4.09 58.74 53.32 100.25 3.99 54.24 58.19 100.25 3.87 49.6 63.29 100.26 3.76 44.74 67.39 100.27 3.66 40.84 71.99 100.27 3.56 36.46 76.86 100.28 3.45 31.82 81.81 100.28 3.33 27.1 85.59 100.29 3.25 23.5 90.69 100.29 3.13 18.64 94.9 100.3 3.04 14.63 99.35 100.31 2.93 10.39 104.09 100.31 2.83 5.88 107.87 100.31 2.74 2.27 112.35 100.32 5.31 0.5 116.94 100.33 9.9 0.51 120.83 100.33 13.79 0.51 124.58 100.34 17.53 0.51 129.19 100.34 22.14 0.52 133.59 100.35 26.55 0.52 138.23 100.35 31.18 0.53 142 100.36 34.95 0.53 145.89 100.36 38.84 0.54 150.03 100.37 42.98 0.54 154.85 100.37 47.8 0.55 158.61 100.38 51.56 0.55 163.17 100.38 56.12 0.56 168.23 100.39 61.18 0.56 171.91 100.39 64.86 0.57 176.66 100.4 69.61 0.57 181.05 100.41 74 0.58 184.9 100.41 77.85 0.58 189.64 100.42 82.58 0.59 193.92 100.42 86.87 0.59 198.09 100.43 91.03 0.6 202.03 100.43 94.97 0.6 206.13 100.44 99.07 0.6 210.4 100.44 103.34 0.61 214.94 100.45 107.89 0.61 220.03 100.45 112.97 0.62 224.16 100.46 117.11 0.63 228.6 100.47 121.55 0.63 232.65 100.47 125.59 0.64 237.66 100.48 130.59 0.64 241.52 100.48 134.46 0.65 245.9 100.49 138.84 0.65 250.67 100.49 143.61 0.66 252.89 98.68 147.78 0.66 252.89 94.54 152.23 0.67 252.9 90.1 157 0.67 252.9 86.39 160.98 0.68 252.9 82.07 165.63 0.68 252.91 77.64 170.39 0.69 252.91 73.41 174.93 0.69 252.92 69.23 179.43 0.7 252.92 65.12 183.84 0.7 252.92 60.59 188.71 0.71 252.93 56.03 193.61 0.71 252.93 51.94 198.01 0.72 252.94 47.55 202.72 0.72 252.94 43.84 206.7 0.73 252.94 40.13 210.69 0.73 252.95 35.52 215.65 0.74 252.95 30.75 220.78 0.74 252.96 26.12 225.75 0.75 252.96 21.76 230.43 0.75 252.97 17.49 235.02 0.76 252.97 13.69 239.11 0.76 252.97 9.32 243.81 0.77 252.98 5.01 248.43 0.77 252.98 1.12 252.61 0.78"/></svg>